<svg width="173" height="51" viewBox="0 0 173 51" fill="none" xmlns="http://www.w3.org/2000/svg">
<g clip-path="url(#clip0_2545_21062)">
<path d="M7.01805 1.278C5.6365 1.27959 4.31198 1.82911 3.33507 2.80602C2.35817 3.78293 1.80864 5.10744 1.80705 6.489V44.271C1.8089 45.6522 2.35841 46.9763 3.33507 47.953C4.31174 48.9296 5.63584 49.4791 7.01705 49.481H166.511C167.892 49.4791 169.216 48.9296 170.193 47.953C171.17 46.9763 171.719 45.6522 171.721 44.271V6.489C171.719 5.10779 171.17 3.78368 170.193 2.80702C169.216 1.83036 167.892 1.28085 166.511 1.279L7.01805 1.278ZM166.511 50.764H7.01805C5.29726 50.7611 3.64785 50.0759 2.43144 48.8588C1.21503 47.6416 0.530903 45.9918 0.529053 44.271L0.529053 6.489C0.531961 4.7689 1.21656 3.12009 2.43285 1.9038C3.64914 0.687503 5.29796 0.00290848 7.01805 0L166.511 0C168.232 0.00291051 169.881 0.687917 171.097 1.90486C172.314 3.1218 172.998 4.77138 173 6.492V44.272C172.998 45.9926 172.314 47.6422 171.097 48.8591C169.881 50.0761 168.232 50.7611 166.511 50.764Z" fill="#A7A9AB"/>
<path d="M39.0201 24.8862C39.0352 23.6337 39.3674 22.4055 39.9858 21.3162C40.6041 20.2269 41.4884 19.3121 42.5561 18.6572C41.8782 17.6887 40.9836 16.8917 39.9436 16.3296C38.9036 15.7675 37.7468 15.4558 36.5651 15.4192C34.0481 15.1562 31.6051 16.9302 30.3241 16.9302C29.0151 16.9302 27.0361 15.4472 24.9091 15.4912C23.5322 15.5359 22.1903 15.9364 21.0141 16.6537C19.8378 17.3709 18.8674 18.3805 18.1971 19.5842C15.2971 24.6092 17.4601 31.9892 20.2401 36.0512C21.6331 38.0392 23.2521 40.2622 25.3821 40.1812C27.4621 40.0952 28.2351 38.8562 30.7501 38.8562C33.2391 38.8562 33.9701 40.1812 36.1391 40.1312C38.3711 40.0942 39.7771 38.1312 41.1171 36.1252C42.1181 34.7103 42.8874 33.145 43.3961 31.4882C42.0998 30.9385 40.9937 30.0198 40.2157 28.8462C39.4376 27.6727 39.0218 26.2962 39.0201 24.8882" fill="white"/>
<path d="M34.9261 12.7487C36.1419 11.2862 36.7389 9.40684 36.5901 7.51074C34.7311 7.70795 33.014 8.59629 31.7791 9.99974C31.1762 10.6863 30.7147 11.4851 30.421 12.3503C30.1272 13.2154 30.0069 14.13 30.0671 15.0417C30.9975 15.0512 31.918 14.8491 32.7589 14.4507C33.5998 14.0522 34.3392 13.4679 34.9211 12.7417" fill="white"/>
<path d="M60.336 13.2849L59.68 11.2289C59.521 10.7209 59.38 10.1539 59.259 9.67191H59.234C59.114 10.1549 58.987 10.7339 58.834 11.2289L58.193 13.2849H60.336ZM57.949 14.4329L57.231 16.8019H55.658L58.333 8.46191H60.274L62.982 16.8019H61.351L60.599 14.4369" fill="white"/>
<path d="M65.2591 10.7744L66.2371 13.8264C66.4111 14.3594 66.5311 14.8414 66.6431 15.3374H66.6801C66.7921 14.8374 66.9281 14.3714 67.0891 13.8264L68.0551 10.7744H69.6501L67.3501 16.7974H65.8501L63.6091 10.7744" fill="white"/>
<path d="M74.237 13.8511C73.16 13.8381 72.132 14.0621 72.132 14.9781C72.1218 15.0945 72.1372 15.2118 72.1771 15.3216C72.2171 15.4315 72.2806 15.5312 72.3632 15.6139C72.4459 15.6965 72.5456 15.76 72.6555 15.8C72.7653 15.8399 72.8826 15.8553 72.999 15.8451C73.2608 15.8503 73.5177 15.7729 73.7331 15.6239C73.9485 15.475 74.1115 15.2619 74.199 15.0151C74.2322 14.9067 74.2457 14.7933 74.239 14.6801L74.237 13.8511ZM75.72 15.3511C75.71 15.8348 75.7435 16.3184 75.82 16.7961H74.448L74.339 16.1301H74.299C74.0838 16.3914 73.8113 16.5995 73.5026 16.7383C73.1938 16.877 72.8572 16.9427 72.519 16.9301C72.275 16.9448 72.0306 16.9091 71.8009 16.8255C71.5712 16.7418 71.3611 16.6118 71.1838 16.4436C71.0064 16.2754 70.8654 16.0726 70.7696 15.8477C70.6739 15.6227 70.6253 15.3806 70.627 15.1361C70.627 13.6251 71.974 12.8481 74.2 12.8611V12.7611C74.2 12.3611 74.041 11.7081 72.977 11.7081C72.4062 11.7092 71.8461 11.8632 71.355 12.1541L71.055 11.1631C71.7228 10.799 72.4746 10.6166 73.235 10.6341C73.5762 10.5959 73.9216 10.6361 74.2449 10.7516C74.5682 10.8671 74.8608 11.0549 75.1006 11.3007C75.3403 11.5464 75.5209 11.8436 75.6284 12.1696C75.7359 12.4957 75.7676 12.842 75.721 13.1821" fill="white"/>
<path d="M77.8751 10.7745H79.3951V16.7975H77.8751V10.7745ZM78.6271 9.90746C78.3998 9.90535 78.1825 9.81326 78.0228 9.65135C77.8631 9.48945 77.7741 9.27089 77.7752 9.0435C77.7762 8.81611 77.8673 8.59839 78.0284 8.43798C78.1896 8.27756 78.4077 8.1875 78.6351 8.1875C78.8625 8.1875 79.0807 8.27756 79.2418 8.43798C79.403 8.59839 79.4941 8.81611 79.4951 9.0435C79.4962 9.27089 79.4071 9.48945 79.2475 9.65135C79.0878 9.81326 78.8705 9.90535 78.6431 9.90746" fill="white"/>
<path d="M81.584 16.8049H83.106V8.00488H81.584V16.8049Z" fill="white"/>
<path d="M88.5021 13.852C87.4251 13.839 86.3971 14.063 86.3971 14.979C86.3869 15.0955 86.4023 15.2127 86.4423 15.3226C86.4822 15.4324 86.5457 15.5322 86.6284 15.6148C86.711 15.6974 86.8108 15.761 86.9206 15.8009C87.0305 15.8409 87.1477 15.8563 87.2641 15.846C87.5259 15.8508 87.7825 15.7732 87.9978 15.6243C88.2131 15.4754 88.3762 15.2626 88.4641 15.016C88.4947 14.9075 88.5072 14.7946 88.5011 14.682L88.5021 13.852ZM89.9851 15.352C89.975 15.8361 90.0084 16.32 90.0851 16.798H88.7141L88.6021 16.132H88.5651C88.3491 16.3931 88.076 16.601 87.7668 16.7397C87.4577 16.8784 87.1208 16.9442 86.7821 16.932C86.5383 16.9464 86.2942 16.9106 86.0647 16.8269C85.8353 16.7431 85.6255 16.6132 85.4482 16.4452C85.271 16.2771 85.1301 16.0745 85.0343 15.8498C84.9385 15.6252 84.8898 15.3833 84.8911 15.139C84.8911 13.628 86.2381 12.851 88.4661 12.864V12.764C88.4661 12.364 88.3071 11.711 87.2401 11.711C86.6702 11.7115 86.1109 11.8655 85.6211 12.157L85.3211 11.166C85.9876 10.8021 86.738 10.6197 87.4971 10.637C87.8383 10.5989 88.1837 10.6391 88.507 10.7546C88.8303 10.8701 89.123 11.0579 89.3627 11.3036C89.6025 11.5493 89.783 11.8465 89.8905 12.1726C89.998 12.4986 90.0297 12.8449 89.9831 13.185" fill="white"/>
<path d="M93.6539 14.3061C93.6534 14.4267 93.6658 14.5471 93.6909 14.6651C93.7637 14.9678 93.9361 15.2374 94.1803 15.4305C94.4246 15.6236 94.7266 15.7291 95.0379 15.7301C95.9889 15.7301 96.5739 14.9751 96.5739 13.7491C96.5739 12.6841 96.0659 11.8181 95.0509 11.8181C94.734 11.8257 94.4288 11.9398 94.1845 12.1418C93.9402 12.3439 93.7709 12.6222 93.7039 12.9321C93.673 13.0632 93.6565 13.1974 93.6549 13.3321L93.6539 14.3061ZM92.1309 7.99609H93.6539V11.5961H93.6789C93.889 11.2818 94.1774 11.0276 94.5157 10.8588C94.854 10.6899 95.2304 10.6121 95.6079 10.6331C97.0809 10.6331 98.1309 11.8561 98.1189 13.6881C98.1189 15.8521 96.7469 16.9301 95.3849 16.9301C95.0031 16.949 94.6235 16.8618 94.2881 16.6783C93.9528 16.4947 93.6748 16.2219 93.4849 15.8901H93.4599L93.3859 16.7971H92.0859C92.1109 16.3881 92.1349 15.7201 92.1349 15.1131" fill="white"/>
<path d="M99.916 16.8049H101.436V8.00488H99.916V16.8049Z" fill="white"/>
<path d="M107.36 13.1476C107.384 12.9673 107.371 12.784 107.32 12.6094C107.269 12.4348 107.182 12.2728 107.064 12.134C106.946 11.9951 106.801 11.8825 106.637 11.8034C106.474 11.7243 106.295 11.6804 106.113 11.6746C105.737 11.6974 105.383 11.862 105.123 12.1354C104.863 12.4088 104.717 12.7705 104.713 13.1476H107.36ZM104.713 14.2146C104.722 14.4431 104.778 14.6673 104.879 14.8727C104.98 15.0781 105.122 15.2602 105.297 15.4072C105.472 15.5542 105.676 15.6629 105.896 15.7264C106.116 15.7898 106.347 15.8066 106.573 15.7756C107.139 15.7825 107.703 15.6901 108.237 15.5026L108.461 16.5396C107.794 16.8071 107.08 16.9377 106.361 16.9236C105.949 16.9616 105.534 16.9096 105.145 16.7712C104.755 16.6328 104.4 16.4114 104.104 16.1222C103.809 15.8331 103.579 15.4831 103.432 15.0965C103.285 14.71 103.224 14.2961 103.253 13.8836C103.218 13.4737 103.267 13.0609 103.399 12.671C103.53 12.2812 103.741 11.9228 104.018 11.6183C104.295 11.3139 104.631 11.0699 105.007 10.9019C105.382 10.7338 105.789 10.6452 106.2 10.6416C108.154 10.6416 108.8 12.2486 108.8 13.5736C108.8 13.7885 108.782 14.0029 108.745 14.2146" fill="white"/>
<path d="M116.354 15.8328C117.217 15.8328 117.824 14.9908 117.824 13.7678C117.824 12.8268 117.403 11.7368 116.366 11.7368C115.289 11.7368 114.855 12.7898 114.855 13.7928C114.855 14.9538 115.437 15.8328 116.338 15.8328H116.354ZM116.304 16.9328C115.896 16.9484 115.489 16.8781 115.11 16.7264C114.731 16.5747 114.388 16.345 114.104 16.0523C113.819 15.7595 113.599 15.4102 113.458 15.0269C113.318 14.6437 113.259 14.2352 113.286 13.8278C113.254 13.4069 113.312 12.9841 113.457 12.5874C113.601 12.1908 113.828 11.8294 114.123 11.5274C114.418 11.2255 114.774 10.9897 115.167 10.836C115.56 10.6823 115.981 10.614 116.403 10.6358C116.809 10.6203 117.213 10.6905 117.59 10.8417C117.966 10.9929 118.307 11.2217 118.589 11.5133C118.872 11.8049 119.089 12.1528 119.228 12.5341C119.367 12.9155 119.425 13.3219 119.396 13.7268C119.427 14.1447 119.369 14.5645 119.227 14.9587C119.085 15.3529 118.861 15.7127 118.571 16.0146C118.28 16.3165 117.929 16.5538 117.541 16.711C117.152 16.8682 116.735 16.9417 116.316 16.9268" fill="white"/>
<path d="M121.186 12.5666C121.186 11.8736 121.165 11.2916 121.14 10.7666H122.46L122.534 11.6666H122.571C122.775 11.3408 123.061 11.0739 123.4 10.892C123.738 10.7102 124.119 10.6198 124.503 10.6296C125.552 10.6296 126.643 11.3076 126.643 13.2146V16.7956H125.117V13.3956C125.117 12.5286 124.795 11.8726 123.969 11.8726C123.703 11.8788 123.445 11.9681 123.232 12.128C123.018 12.2879 122.861 12.5105 122.78 12.7646C122.727 12.92 122.702 13.0835 122.705 13.2476V16.7956H121.182" fill="white"/>
<path d="M133.657 9.22559V10.7706H135.101V11.9106H133.655V14.5576C133.655 15.3006 133.855 15.6716 134.432 15.6716C134.632 15.6811 134.832 15.6602 135.026 15.6096L135.051 16.7576C134.696 16.8732 134.324 16.927 133.951 16.9166C133.711 16.9289 133.47 16.8915 133.245 16.8069C133.019 16.7222 132.814 16.5921 132.641 16.4246C132.268 15.941 132.095 15.3323 132.158 14.7246V11.9096H131.301V10.7706H132.155V9.64659" fill="white"/>
<path d="M136.797 8H138.32V11.588H138.345C138.534 11.2998 138.794 11.0652 139.1 10.907C139.421 10.73 139.782 10.6374 140.149 10.638C141.179 10.638 142.249 11.316 142.249 13.248V16.806H140.73V13.406C140.73 12.539 140.408 11.871 139.567 11.871C139.305 11.873 139.05 11.9561 138.837 12.1091C138.624 12.262 138.464 12.4772 138.378 12.725C138.331 12.8729 138.31 13.0279 138.315 13.183V16.806H136.792" fill="white"/>
<path d="M148.14 13.1487C148.165 12.9681 148.151 12.7844 148.099 12.6095C148.048 12.4347 147.961 12.2725 147.843 12.1336C147.725 11.9947 147.579 11.8822 147.415 11.8033C147.25 11.7244 147.071 11.6809 146.889 11.6757C146.512 11.6978 146.158 11.8622 145.898 12.1357C145.638 12.4092 145.492 12.7714 145.489 13.1487H148.14ZM145.493 14.2107C145.502 14.4389 145.558 14.6628 145.658 14.8681C145.758 15.0733 145.9 15.2553 146.075 15.4023C146.249 15.5494 146.453 15.6582 146.672 15.7218C146.892 15.7854 147.122 15.8024 147.348 15.7717C147.916 15.7796 148.481 15.6872 149.017 15.4987L149.243 16.5357C148.574 16.8039 147.858 16.9345 147.137 16.9197C146.726 16.9573 146.311 16.905 145.922 16.7664C145.533 16.6278 145.179 16.4062 144.884 16.1169C144.589 15.8277 144.36 15.4778 144.214 15.0915C144.068 14.7052 144.008 14.2917 144.037 13.8797C144.001 13.4708 144.051 13.059 144.181 12.67C144.312 12.281 144.522 11.9231 144.797 11.6188C145.073 11.3145 145.408 11.0703 145.782 10.9015C146.156 10.7327 146.561 10.6429 146.971 10.6377C148.925 10.6377 149.571 12.2447 149.571 13.5697C149.573 13.7844 149.556 13.9989 149.521 14.2107" fill="white"/>
<path d="M64.129 32.7644L62.693 28.3264C62.5416 27.8744 62.2556 26.8077 61.835 25.1264H61.786C61.619 25.8474 61.346 26.9164 60.978 28.3264L59.566 32.7644H64.129ZM69.095 39.8504H66.195L64.61 34.8574H59.09L57.576 39.8504H54.751L60.224 22.8604H63.599" fill="white"/>
<path d="M80.389 33.6736C80.4318 32.6299 80.1495 31.5988 79.581 30.7226C79.3183 30.3397 78.964 30.0285 78.5505 29.8172C78.137 29.6059 77.6773 29.5012 77.213 29.5126C76.5454 29.5131 75.8996 29.7501 75.39 30.1816C74.8422 30.6296 74.4623 31.25 74.312 31.9416C74.2381 32.2113 74.1965 32.4889 74.188 32.7686V34.8116C74.1649 35.6402 74.4569 36.4467 75.005 37.0686C75.2701 37.3697 75.5985 37.6083 75.9669 37.7672C76.3352 37.9261 76.7341 38.0014 77.135 37.9876C77.6018 38.0069 78.0658 37.908 78.4841 37.7002C78.9025 37.4923 79.2615 37.1822 79.528 36.7986C80.1415 35.8764 80.4433 34.7818 80.389 33.6756M83.163 33.5756C83.2622 35.3796 82.6558 37.1515 81.472 38.5166C80.9975 39.0378 80.4169 39.4514 79.7692 39.7297C79.1215 40.0079 78.4218 40.1442 77.717 40.1296C77.0335 40.1848 76.3479 40.0519 75.7345 39.7454C75.1211 39.4389 74.6032 38.9703 74.237 38.3906H74.189V44.8416H71.463V31.6306C71.463 30.3206 71.4297 28.9759 71.363 27.5966H73.757L73.909 29.5416H73.961C74.3734 28.9099 74.9277 28.3833 75.5798 28.004C76.2318 27.6246 76.9635 27.403 77.7165 27.3568C78.4694 27.3105 79.2227 27.4409 79.9163 27.7376C80.6099 28.0343 81.2245 28.4891 81.711 29.0656C82.7231 30.3446 83.2388 31.9463 83.163 33.5756Z" fill="white"/>
<path d="M94.4779 33.6742C94.5204 32.6307 94.2381 31.5996 93.6699 30.7232C93.4068 30.34 93.052 30.0287 92.638 29.8173C92.2239 29.606 91.7636 29.5015 91.2989 29.5132C90.6314 29.5142 89.9857 29.7512 89.4759 30.1822C88.9301 30.6286 88.5532 31.2482 88.4079 31.9382C88.3319 32.2076 88.2892 32.4854 88.2809 32.7652V34.8082C88.2569 35.6365 88.5478 36.443 89.0949 37.0652C89.3605 37.3667 89.6897 37.6055 90.0587 37.7644C90.4277 37.9234 90.8274 37.9984 91.2289 37.9842C91.6957 38.0035 92.1597 37.9047 92.578 37.6968C92.9964 37.489 93.3554 37.1789 93.6219 36.7952C94.2319 35.8715 94.5323 34.7779 94.4799 33.6722M97.2539 33.5722C97.3543 35.3758 96.7493 37.1476 95.5669 38.5132C95.0927 39.0348 94.5121 39.4487 93.8644 39.727C93.2166 40.0052 92.5168 40.1414 91.8119 40.1262C91.128 40.1802 90.4424 40.0462 89.8291 39.7388C89.2157 39.4315 88.6981 38.9624 88.3319 38.3822H88.2859V44.8372H85.5609V31.6372C85.5609 30.3272 85.5276 28.9826 85.4609 27.6032H87.8549L88.0059 29.5472H88.0589C88.4705 28.9148 89.0244 28.3875 89.6763 28.0075C90.3281 27.6275 91.0599 27.4054 91.813 27.3588C92.5661 27.3123 93.3196 27.4426 94.0133 27.7394C94.707 28.0363 95.3216 28.4913 95.8079 29.0682C96.8184 30.3478 97.332 31.9496 97.2539 33.5782" fill="white"/>
<path d="M113.007 35.0852C113.029 35.7482 112.905 36.4078 112.644 37.0176C112.383 37.6273 111.991 38.1724 111.496 38.6142C110.195 39.6713 108.545 40.2016 106.871 40.1002C105.331 40.1728 103.802 39.8055 102.462 39.0412L103.096 36.7752C104.283 37.4933 105.647 37.8672 107.034 37.8552C107.887 37.9075 108.731 37.6653 109.426 37.1692C109.704 36.9476 109.925 36.6642 110.074 36.3416C110.222 36.0189 110.293 35.6661 110.28 35.3112C110.288 34.9881 110.231 34.6668 110.11 34.3669C109.99 34.067 109.81 33.7948 109.58 33.5672C108.896 32.9739 108.097 32.5274 107.233 32.2552C104.257 31.1419 102.769 29.5185 102.769 27.3852C102.753 26.7319 102.885 26.0833 103.156 25.4885C103.427 24.8938 103.829 24.3684 104.333 23.9522C105.509 23.0136 106.988 22.537 108.491 22.6122C109.823 22.5668 111.146 22.844 112.348 23.4202L111.666 25.6392C110.667 25.108 109.549 24.8386 108.417 24.8562C107.609 24.8068 106.81 25.0583 106.176 25.5622C105.959 25.7548 105.786 25.9918 105.668 26.2571C105.55 26.5224 105.491 26.81 105.494 27.1002C105.487 27.419 105.554 27.7351 105.69 28.0237C105.825 28.3123 106.026 28.5658 106.275 28.7642C107.024 29.3295 107.858 29.7723 108.745 30.0762C109.966 30.506 111.07 31.2129 111.971 32.1412C112.668 32.9609 113.035 34.0101 113.001 35.0852" fill="white"/>
<path d="M122.004 29.6419H119.004V35.5859C119.004 37.0999 119.534 37.8562 120.595 37.8549C121.001 37.8638 121.407 37.8221 121.803 37.7309L121.877 39.7919C121.195 40.0167 120.479 40.1183 119.762 40.0919C119.296 40.1176 118.83 40.0434 118.394 39.8742C117.959 39.705 117.565 39.4447 117.239 39.1109C116.544 38.1582 116.222 36.9847 116.332 35.8109V29.6419H114.542V27.5969H116.332V25.3549L119.004 24.5469V27.5969H122.004" fill="white"/>
<path d="M132.719 33.7111C132.747 32.6929 132.493 31.6868 131.985 30.8041C131.757 30.3545 131.407 29.9784 130.975 29.7187C130.543 29.4591 130.046 29.3264 129.542 29.3361C129.03 29.3219 128.525 29.4521 128.084 29.7117C127.642 29.9713 127.283 30.3499 127.047 30.8041C126.537 31.7047 126.285 32.7286 126.319 33.7631C126.289 34.7784 126.541 35.7822 127.047 36.6631C127.283 37.1125 127.64 37.4877 128.077 37.7468C128.513 38.006 129.013 38.139 129.521 38.1311C130.027 38.1343 130.523 37.9963 130.955 37.7327C131.386 37.4692 131.736 37.0904 131.964 36.6391C132.485 35.7516 132.747 34.7358 132.719 33.7071M135.543 33.6211C135.611 35.3155 135.034 36.9726 133.929 38.2591C133.362 38.878 132.667 39.3656 131.892 39.6876C131.117 40.0096 130.281 40.1582 129.443 40.1231C128.639 40.1584 127.837 40.0164 127.094 39.7071C126.351 39.3977 125.685 38.9286 125.143 38.3331C124.058 37.0868 123.486 35.4748 123.543 33.8231C123.474 32.1151 124.065 30.446 125.195 29.1631C125.759 28.5551 126.449 28.0775 127.217 27.7636C127.985 27.4498 128.812 27.3073 129.64 27.3461C130.45 27.3129 131.257 27.4557 132.006 27.7648C132.755 28.0738 133.428 28.5417 133.978 29.1361C135.051 30.3795 135.61 31.9844 135.542 33.6251" fill="white"/>
<path d="M144.39 29.9927C144.107 29.9417 143.82 29.9166 143.532 29.9177C143.101 29.8982 142.672 29.9871 142.284 30.1763C141.897 30.3655 141.563 30.649 141.313 31.0007C140.839 31.7158 140.602 32.5616 140.635 33.4187V39.8487H137.914L137.935 31.4557C137.935 30.0411 137.902 28.7541 137.835 27.5947H140.206L140.306 29.9417H140.377C140.636 29.1776 141.108 28.5039 141.739 28.0007C142.308 27.5765 142.998 27.3465 143.708 27.3447C143.936 27.3441 144.164 27.3608 144.39 27.3947" fill="white"/>
<path d="M153.968 32.4386C154.003 31.7054 153.819 30.9784 153.44 30.3496C153.215 29.9815 152.894 29.6813 152.512 29.4811C152.129 29.2809 151.7 29.1881 151.269 29.2126C150.845 29.2058 150.425 29.3034 150.047 29.497C149.669 29.6906 149.345 29.9741 149.102 30.3226C148.638 30.9375 148.361 31.6726 148.302 32.4406L153.968 32.4386ZM156.562 33.1446C156.567 33.5588 156.534 33.9726 156.462 34.3806H148.299C148.28 34.9016 148.376 35.4205 148.58 35.9C148.785 36.3796 149.093 36.808 149.482 37.1546C150.242 37.7495 151.19 38.0525 152.154 38.0086C153.281 38.0231 154.4 37.8267 155.454 37.4296L155.882 39.3216C154.578 39.8528 153.178 40.1108 151.77 40.0796C150.949 40.1248 150.127 39.9987 149.357 39.7094C148.587 39.42 147.885 38.9736 147.297 38.3986C146.741 37.7939 146.311 37.0846 146.032 36.3121C145.753 35.5395 145.63 34.7191 145.671 33.8986C145.609 32.2296 146.146 30.5934 147.185 29.2856C147.694 28.6447 148.346 28.1326 149.09 27.791C149.834 27.4495 150.647 27.288 151.465 27.3196C152.246 27.2759 153.026 27.4337 153.729 27.778C154.431 28.1223 155.034 28.6415 155.478 29.2856C156.227 30.429 156.604 31.7765 156.555 33.1426" fill="white"/>
</g>
<defs>
<clipPath id="clip0_2545_21062">
<rect width="172.471" height="50.764" fill="white" transform="translate(0.529053)"/>
</clipPath>
</defs>
</svg>
