<svg width="173" height="51" viewBox="0 0 173 51" fill="none" xmlns="http://www.w3.org/2000/svg">
<g clip-path="url(#clip0_2545_21089)">
<path d="M30.0691 25.9523L13.4391 41.8333C13.0571 41.5743 12.7447 41.2253 12.5295 40.817C12.3143 40.4088 12.2029 39.9538 12.2051 39.4923V12.4123C12.2053 11.9512 12.3178 11.4971 12.5328 11.0893C12.7478 10.6814 13.0588 10.332 13.4391 10.0713L30.0691 25.9523Z" fill="#2196F3"/>
<path d="M35.8902 20.4059L30.0692 25.9519L13.4392 10.0709C13.5016 10.019 13.5685 9.97276 13.6392 9.9329C14.071 9.67277 14.5641 9.53191 15.0682 9.5247C15.5722 9.5175 16.0692 9.64421 16.5082 9.8919L35.8902 20.4059Z" fill="#4CAF50"/>
<path d="M42.9451 25.9532C42.95 26.4729 42.812 26.9838 42.546 27.4302C42.28 27.8766 41.8964 28.2412 41.4371 28.4843L35.8901 31.4962L30.0691 25.9532L35.8901 20.4062L41.4371 23.4222C41.8955 23.6663 42.2784 24.0312 42.5442 24.4773C42.8101 24.9235 42.9487 25.4339 42.9451 25.9532Z" fill="#FFC107"/>
<path d="M35.8902 31.4991L16.5082 42.0121C16.0675 42.2544 15.5714 42.3779 15.0686 42.3706C14.5658 42.3632 14.0736 42.2252 13.6402 41.9701C13.5711 41.9281 13.5044 41.8824 13.4402 41.8331L30.0692 25.9521L35.8902 31.4991Z" fill="#F44336"/>
<path d="M6.489 1.276C5.10779 1.27785 3.78368 1.82735 2.80702 2.80402C1.83036 3.78068 1.28085 5.10479 1.279 6.486V44.271C1.28059 45.6521 1.83007 46.9762 2.80685 47.9526C3.78363 48.929 5.10789 49.4779 6.489 49.479H165.982C167.363 49.4779 168.687 48.9292 169.663 47.9533C170.64 46.9773 171.19 45.6538 171.192 44.273V6.489C171.19 5.10779 170.641 3.78369 169.664 2.80702C168.687 1.83036 167.363 1.28085 165.982 1.279L6.489 1.276ZM165.981 50.763H6.489C4.7689 50.7601 3.12009 50.0755 1.9038 48.8592C0.687503 47.6429 0.00290848 45.9941 0 44.274L0 6.489C0.00290848 4.7689 0.687503 3.12009 1.9038 1.90379C3.12009 0.6875 4.7689 0.00290848 6.489 0H165.982C167.702 0.00290848 169.351 0.6875 170.567 1.90379C171.783 3.12009 172.468 4.7689 172.471 6.489V44.274C172.468 45.9941 171.783 47.6429 170.567 48.8592C169.351 50.0755 167.701 50.7601 165.981 50.763Z" fill="#A7A9AB"/>
<path d="M136.466 38.2749H138.844V22.3399H136.466V38.2749ZM157.89 28.0799L155.162 34.9899H155.083L152.254 28.0799H149.69L153.935 37.7359L151.514 43.1079H153.995L160.534 28.0799H157.89ZM144.398 36.4659C143.621 36.4659 142.535 36.0789 142.535 35.1129C142.535 33.8839 143.888 33.4129 145.055 33.4129C145.814 33.3929 146.564 33.577 147.228 33.9459C147.14 34.637 146.805 35.2729 146.285 35.7362C145.765 36.1994 145.095 36.4586 144.398 36.4659ZM144.686 27.7349C143.818 27.6845 142.954 27.8884 142.2 28.3216C141.446 28.7548 140.835 29.3985 140.441 30.1739L142.552 31.0539C142.761 30.6701 143.078 30.3555 143.463 30.1483C143.848 29.9411 144.285 29.8503 144.721 29.8869C145.324 29.8283 145.926 30.0111 146.394 30.3954C146.863 30.7796 147.16 31.334 147.221 31.9369V32.1009C146.457 31.6953 145.606 31.4837 144.741 31.4849C142.466 31.4849 140.15 32.7359 140.15 35.0729C140.172 35.5656 140.292 36.0489 140.504 36.4941C140.717 36.9393 141.016 37.3374 141.385 37.6646C141.754 37.9918 142.185 38.2415 142.653 38.3989C143.12 38.5564 143.614 38.6182 144.106 38.5809C144.705 38.616 145.303 38.4896 145.836 38.215C146.37 37.9405 146.82 37.5277 147.14 37.0199H147.219V38.2519H149.519V32.1369C149.519 29.3099 147.408 27.7309 144.684 27.7309M129.978 30.0189H126.594V24.5539H129.978C130.703 24.5539 131.399 24.842 131.912 25.3548C132.424 25.8676 132.712 26.5632 132.712 27.2884C132.712 28.0136 132.424 28.7092 131.912 29.222C131.399 29.7348 130.703 30.0229 129.978 30.0229M129.916 22.3419H124.216V38.2759H126.594V32.2389H129.916C130.586 32.2719 131.257 32.1684 131.886 31.9345C132.515 31.7007 133.091 31.3414 133.577 30.8785C134.063 30.4156 134.45 29.8587 134.715 29.2417C134.979 28.6246 135.116 27.9603 135.116 27.2889C135.116 26.6175 134.979 25.9532 134.715 25.3361C134.45 24.7191 134.063 24.1622 133.577 23.6993C133.091 23.2364 132.515 22.8771 131.886 22.6433C131.257 22.4094 130.586 22.3059 129.916 22.3389M98.8449 36.4619C98.0289 36.3825 97.2716 36.0022 96.7206 35.395C96.1696 34.7879 95.8644 33.9973 95.8644 33.1774C95.8644 32.3575 96.1696 31.567 96.7206 30.9598C97.2716 30.3526 98.0289 29.9723 98.8449 29.8929C99.6729 29.9559 100.446 30.3293 101.011 30.9383C101.575 31.5473 101.889 32.3471 101.889 33.1774C101.889 34.0078 101.575 34.8075 101.011 35.4165C100.446 36.0255 99.6729 36.3989 98.8449 36.4619ZM101.572 28.9619H101.493C101.131 28.5689 100.689 28.2577 100.197 28.0489C99.705 27.84 99.1742 27.7385 98.6399 27.7509C97.24 27.8079 95.9164 28.4042 94.9461 29.4149C93.9758 30.4255 93.4339 31.7723 93.4339 33.1734C93.4339 34.5745 93.9758 35.9213 94.9461 36.9319C95.9164 37.9426 97.24 38.5389 98.6399 38.5959C99.1764 38.6097 99.7094 38.5067 100.202 38.294C100.695 38.0812 101.135 37.7639 101.493 37.3639H101.572V38.1419C101.572 40.2159 100.472 41.3269 98.6779 41.3269C98.0826 41.3123 97.5051 41.1209 97.019 40.777C96.5328 40.4332 96.16 39.9524 95.9479 39.3959L93.8729 40.2599C94.2642 41.2111 94.9306 42.0238 95.7866 42.5939C96.6427 43.164 97.6494 43.4656 98.6779 43.4599C101.47 43.4599 103.83 41.8189 103.83 37.8129V28.0799H101.573L101.572 28.9619ZM105.472 38.2619H107.856V22.3319H105.472V38.2619ZM111.366 33.0049C111.34 32.6104 111.394 32.2148 111.523 31.8412C111.652 31.4676 111.854 31.1235 112.118 30.8291C112.382 30.5347 112.702 30.2959 113.059 30.1268C113.417 29.9576 113.804 29.8614 114.199 29.8439C114.61 29.8169 115.02 29.9113 115.378 30.1154C115.735 30.3195 116.025 30.6243 116.211 30.9919L111.366 33.0049ZM118.76 31.1969C118.434 30.2148 117.813 29.357 116.982 28.74C116.151 28.123 115.15 27.7766 114.116 27.7479C113.42 27.7525 112.731 27.8982 112.093 28.1762C111.454 28.4543 110.879 28.8589 110.401 29.3655C109.924 29.8722 109.554 30.4705 109.314 31.1242C109.074 31.7779 108.969 32.4735 109.005 33.1689C108.99 33.8818 109.118 34.5904 109.382 35.2526C109.647 35.9148 110.042 36.517 110.544 37.0232C111.046 37.5294 111.645 37.9292 112.305 38.1989C112.965 38.4686 113.673 38.6026 114.386 38.5929C115.279 38.5986 116.16 38.3817 116.949 37.9618C117.738 37.542 118.41 36.9323 118.904 36.1879L117.056 34.9559C116.78 35.4162 116.388 35.7965 115.92 36.0596C115.452 36.3226 114.924 36.4592 114.387 36.4559C113.835 36.4774 113.289 36.3325 112.82 36.0398C112.352 35.7472 111.982 35.3204 111.759 34.8149L119.006 31.8149L118.76 31.1969ZM61.0019 29.4109V31.7109H66.5019C66.4247 32.7917 65.9825 33.8143 65.2479 34.6109C64.6968 35.1734 64.0337 35.6139 63.3017 35.9039C62.5696 36.194 61.7847 36.3272 60.9979 36.2949C59.3748 36.2949 57.8182 35.6501 56.6704 34.5024C55.5227 33.3547 54.8779 31.798 54.8779 30.1749C54.8779 28.5518 55.5227 26.9951 56.6704 25.8474C57.8182 24.6997 59.3748 24.0549 60.9979 24.0549C62.5437 24.0344 64.0348 24.6261 65.1459 25.7009L66.7679 24.0749C66.0088 23.3237 65.1073 22.7317 64.1163 22.3334C63.1253 21.9352 62.0648 21.7389 60.9969 21.7559C58.7634 21.7559 56.6214 22.6432 55.042 24.2225C53.4627 25.8018 52.5754 27.9439 52.5754 30.1774C52.5754 32.4109 53.4627 34.553 55.042 36.1323C56.6214 37.7116 58.7634 38.5989 60.9969 38.5989C62.0879 38.6436 63.1758 38.4561 64.1888 38.0487C65.2018 37.6413 66.1167 37.0234 66.8729 36.2359C68.2129 34.7705 68.9273 32.8396 68.8639 30.8549C68.8696 30.3723 68.8281 29.8904 68.7399 29.4159L61.0019 29.4109ZM75.1359 36.4659C74.4763 36.5131 73.8178 36.3606 73.2461 36.0283C72.6743 35.6959 72.2159 35.1992 71.9305 34.6027C71.645 34.0061 71.5458 33.3375 71.6457 32.6838C71.7456 32.0301 72.0401 31.4216 72.4906 30.9376C72.9412 30.4535 73.5271 30.1164 74.172 29.97C74.8169 29.8236 75.4909 29.8748 76.1063 30.1168C76.7217 30.3589 77.25 30.7806 77.6223 31.3272C77.9947 31.8737 78.1939 32.5196 78.1939 33.1809C78.2143 33.5987 78.1509 34.0164 78.0073 34.4092C77.8637 34.8021 77.6429 35.1623 77.3578 35.4684C77.0728 35.7746 76.7294 36.0206 76.3478 36.1919C75.9662 36.3632 75.5541 36.4564 75.1359 36.4659ZM75.1359 27.7599C74.0641 27.7637 73.0174 28.085 72.1281 28.6832C71.2387 29.2815 70.5466 30.1298 70.1391 31.1212C69.7316 32.1126 69.6271 33.2025 69.8386 34.2532C70.0502 35.304 70.5683 36.2685 71.3277 37.0249C72.0871 37.7814 73.0536 38.2958 74.1052 38.5033C75.1567 38.7108 76.2462 38.602 77.236 38.1907C78.2258 37.7794 79.0715 37.084 79.6663 36.1923C80.2611 35.3007 80.5783 34.2527 80.5779 33.1809C80.5885 32.4643 80.4548 31.7529 80.1848 31.089C79.9148 30.4252 79.514 29.8224 79.0063 29.3166C78.4985 28.8108 77.8942 28.4124 77.2293 28.1449C76.5644 27.8775 75.8525 27.7466 75.1359 27.7599ZM87.0079 36.4659C86.3484 36.5129 85.6899 36.3602 85.1183 36.0278C84.5467 35.6953 84.0884 35.1984 83.8032 34.6019C83.5179 34.0053 83.4188 33.3367 83.5188 32.6831C83.6189 32.0294 83.9134 31.421 84.364 30.9371C84.8146 30.4532 85.4005 30.1161 86.0454 29.9698C86.6903 29.8235 87.3643 29.8748 87.9796 30.1169C88.5949 30.359 89.1231 30.7807 89.4954 31.3272C89.8677 31.8737 90.0669 32.5196 90.0669 33.1809C90.0871 33.5987 90.0234 34.0163 89.8796 34.4092C89.7358 34.802 89.5149 35.1621 89.2299 35.4682C88.9448 35.7743 88.6014 36.0203 88.2198 36.1917C87.8382 36.363 87.4261 36.4562 87.0079 36.4659ZM87.0079 27.7599C85.9361 27.7639 84.8896 28.0853 84.0003 28.6837C83.1111 29.2821 82.4192 30.1305 82.0118 31.1219C81.6045 32.1133 81.5001 33.2031 81.7117 34.2538C81.9234 35.3045 82.4417 36.2689 83.2011 37.0253C83.9605 37.7816 84.927 38.296 85.9785 38.5034C87.0301 38.7108 88.1195 38.6019 89.1092 38.1906C90.0989 37.7792 90.9446 37.0839 91.5393 36.1922C92.1341 35.3006 92.4513 34.2527 92.4509 33.1809C92.4615 32.4642 92.3278 31.7527 92.0577 31.0888C91.7877 30.4249 91.3868 29.822 90.8789 29.3162C90.3711 28.8104 89.7667 28.412 89.1016 28.1446C88.4366 27.8772 87.7246 27.7464 87.0079 27.7599Z" fill="white"/>
<path d="M58.5899 10.5559C58.0935 10.1086 57.45 9.85948 56.7819 9.85587C56.0317 9.87565 55.3189 10.1875 54.7953 10.7251C54.2718 11.2627 53.9788 11.9834 53.9788 12.7339C53.9788 13.4843 54.2718 14.2051 54.7953 14.7426C55.3189 15.2802 56.0317 15.5921 56.7819 15.6119C57.0736 15.6427 57.3685 15.6142 57.6489 15.5281C57.9293 15.442 58.1894 15.3001 58.4136 15.111C58.6377 14.9218 58.8214 14.6893 58.9534 14.4274C59.0854 14.1655 59.1632 13.8796 59.1819 13.5869H57.0449V12.7079H60.3299C60.3299 15.3419 58.9299 16.5809 56.7819 16.5809C55.7608 16.5809 54.7815 16.1752 54.0595 15.4532C53.3375 14.7312 52.9319 13.752 52.9319 12.7309C52.9319 11.7098 53.3375 10.7305 54.0595 10.0085C54.7815 9.28649 55.7608 8.88087 56.7819 8.88087C57.7221 8.87866 58.6283 9.23276 59.3179 9.87187" fill="white"/>
<path d="M66.1571 8.97656V9.92056H62.7271V12.3206H65.7201V13.2716H62.7271V15.5346H66.2661V16.4856H61.7141V8.98557" fill="white"/>
<path d="M72.725 8.97656V9.93356H70.4449V16.4756H69.4249V9.93356H67.1479V8.97656" fill="white"/>
<path d="M76.561 16.4746H77.573V8.97461H76.561V16.4746Z" fill="white"/>
<path d="M84.4791 8.97656V9.93356H82.2041V16.4756H81.1781V9.93356H78.9031V8.97656" fill="white"/>
<path d="M91.62 15.6058C92.1916 15.6249 92.7559 15.4728 93.2405 15.169C93.7251 14.8652 94.1078 14.4235 94.3396 13.9006C94.5715 13.3778 94.6418 12.7975 94.5415 12.2344C94.4413 11.6713 94.1751 11.151 93.7771 10.7403C93.3791 10.3295 92.8675 10.047 92.3078 9.92907C91.7482 9.81112 91.166 9.86307 90.6361 10.0783C90.1062 10.2935 89.6526 10.6621 89.3337 11.1368C89.0147 11.6116 88.8449 12.1708 88.8459 12.7428C88.8368 13.1138 88.9016 13.4829 89.0367 13.8286C89.1717 14.1742 89.3743 14.4895 89.6325 14.7561C89.8907 15.0226 90.1995 15.235 90.5407 15.3809C90.882 15.5268 91.2488 15.6032 91.62 15.6058ZM91.62 8.88776C92.3835 8.87546 93.1335 9.09058 93.7744 9.50574C94.4154 9.92091 94.9184 10.5174 95.2194 11.2192C95.5204 11.921 95.6058 12.6966 95.4647 13.4471C95.3237 14.1976 94.9626 14.8892 94.4274 15.434C93.8921 15.9787 93.2069 16.3518 92.459 16.506C91.7111 16.6602 90.9342 16.5884 90.2271 16.2997C89.5201 16.0111 88.915 15.5187 88.4886 14.8851C88.0623 14.2515 87.834 13.5054 87.8329 12.7418C87.8254 12.2391 87.9177 11.7399 88.1045 11.2731C88.2912 10.8063 88.5688 10.3812 88.921 10.0225C89.2733 9.66371 89.6932 9.37843 90.1565 9.18314C90.6198 8.98785 91.1172 8.88643 91.62 8.88477" fill="white"/>
<path d="M101.415 16.4746L97.9971 10.8276V16.4746H96.9851V8.97461H97.9851L101.368 14.5746V8.97461H102.381V16.4746" fill="white"/>
</g>
<defs>
<clipPath id="clip0_2545_21089">
<rect width="172.471" height="50.764" fill="white"/>
</clipPath>
</defs>
</svg>
